#!OML:ASF X:\für Bonn\!DataBase\2005_08_12_Daniel\c3d\Daniel.ASF
:FULLY-SPECIFIED
:DEGREES
125
root -0.0631393 13.4071 1.63082 184.161 -9.33371 -188.021
lowerback 81.5062 -8.85619 19.5189
upperback 9.90406 -3.01736 -2.23011
thorax -7.93634 -4.19922 -7.94393
lowerneck 3.77526 -8.71997 -1.32725
upperneck 6.53384 -12.0828 3.15539
head 1.71031 -6.02059 1.13092
rclavicle -4.45278e-014 -1.19271e-015
rhumerus 219.17 -162.67 -249.792
rradius 12.2818
rwrist 11.4523
rhand -28.8342 12.9622
rfingers 7.12502
rthumb -2.19158 -17.0063
lclavicle -4.45278e-014 -1.19271e-015
lhumerus -25.2187 -13.7851 92.2827
lradius 54.0288
lwrist 6.56191
lhand -12.1102 -9.24842
lfingers 7.12502
lthumb 13.9508 20.2635
rfemur -67.1928 -10.3938 9.32156
rtibia 98.2775
rfoot -32.6906 -1.94236
rtoes -16.9066
lfemur -67.043 -2.58387 -27.0269
ltibia 95.3432
lfoot -29.8251 -13.9605
ltoes -4.90689
126
root -0.0694846 13.3237 1.61897 184.047 -9.36641 -188.11
lowerback 81.568 -9.0049 19.6031
upperback 9.88369 -3.09882 -2.25719
thorax -7.94938 -4.23377 -7.96431
lowerneck 3.86511 -8.73103 -1.37127
upperneck 6.62722 -12.1115 3.15538
head 1.72905 -6.03749 1.1395
rclavicle -3.81667e-014 4.57205e-014
rhumerus 219.702 -161.588 -250.798
rradius 11.9004
rwrist 13.2154
rhand -29.6383 13.2999
rfingers 7.12502
rthumb -2.96813 -16.6592
lclavicle -3.81667e-014 4.57205e-014
lhumerus -25.3088 -14.102 92.3432
lradius 53.9813
lwrist 6.85862
lhand -12.0462 -9.19904
lfingers 7.12502
lthumb 14.0125 20.3087
rfemur -67.6792 -10.6249 9.21287
rtibia 99.2406
rfoot -32.9132 -1.87552
rtoes -17.0946
lfemur -67.476 -2.4078 -27.1957
ltibia 96.2344
lfoot -30.1084 -14.1468
ltoes -4.8123
127
root -0.0754408 13.2422 1.60822 183.941 -9.40779 -188.193
lowerback 81.6325 -9.15797 19.6918
upperback 9.84201 -3.16675 -2.29106
thorax -7.98571 -4.26125 -7.99863
lowerneck 3.96835 -8.74853 -1.39362
upperneck 6.71352 -12.1476 3.15242
head 1.74184 -6.05785 1.14455
rclavicle 3.18055e-015 5.30755e-014
rhumerus 220.082 -160.668 -251.618
rradius 11.5967
rwrist 14.7422
rhand -30.4273 13.6194
rfingers 7.12502
rthumb -3.73014 -16.3277
lclavicle 3.18055e-015 5.30755e-014
lhumerus -25.3952 -14.4617 92.4178
lradius 53.9077
lwrist 7.25093
lhand -11.967 -9.09306
lfingers 7.12502
lthumb 14.0888 20.4093
rfemur -68.1511 -10.8458 9.12151
rtibia 100.164
rfoot -33.1418 -1.8535
rtoes -17.3729
lfemur -67.9051 -2.2217 -27.3592
ltibia 97.0862
lfoot -30.3507 -14.3606
ltoes -4.64057
128
root -0.0822787 13.1632 1.59822 183.808 -9.44253 -188.244
lowerback 81.6486 -9.28615 19.7783
upperback 9.8429 -3.24167 -2.30502
thorax -7.97806 -4.29454 -8.00961
lowerneck 4.07514 -8.74357 -1.44516
upperneck 6.76521 -12.1523 3.16854
head 1.74529 -6.06335 1.16148
rclavicle 3.49861e-014 -6.71892e-014
rhumerus 220.599 -159.601 -252.672
rradius 11.2491
rwrist 16.5421
rhand -31.1906 14.0451
rfingers 7.12502
rthumb -4.46717 -15.8877
lclavicle 3.49861e-014 -6.71892e-014
lhumerus -25.4985 -14.7429 92.4863
lradius 53.9109
lwrist 7.6187
lhand -11.8193 -8.9945
lfingers 7.12502
lthumb 14.2311 20.4979
rfemur -68.5916 -11.061 9.05876
rtibia 101.056
rfoot -33.3319 -1.84578
rtoes -17.6383
lfemur -68.2949 -2.02346 -27.4935
ltibia 97.9147
lfoot -30.575 -14.5668
ltoes -4.48833
129
root -0.0879204 13.0873 1.58799 183.685 -9.48308 -188.278
lowerback 81.6322 -9.3959 19.8682
upperback 9.84662 -3.29559 -2.30675
thorax -7.96771 -4.31915 -8.01729
lowerneck 4.15275 -8.74871 -1.52931
upperneck 6.87506 -12.1774 3.18944
head 1.77566 -6.07914 1.18185
rclavicle -6.67916e-014 3.20043e-014
rhumerus 221.099 -158.575 -253.711
rradius 10.9217
rwrist 18.2871
rhand -31.9281 14.3991
rfingers 7.12502
rthumb -5.17932 -15.5176
lclavicle -6.67916e-014 3.20043e-014
lhumerus -25.5948 -15.0526 92.5777
lradius 53.902
lwrist 8.00987
lhand -11.6385 -8.87057
lfingers 7.12502
lthumb 14.4054 20.6095
rfemur -69.0308 -11.2699 9.02216
rtibia 101.921
rfoot -33.5154 -1.82647
rtoes -17.8217
lfemur -68.6924 -1.80337 -27.6082
ltibia 98.7235
lfoot -30.8007 -14.7971
ltoes -4.33257
130
root -0.0943153 13.0125 1.57841 183.554 -9.52119 -188.29
lowerback 81.5937 -9.49279 19.9518
upperback 9.84904 -3.34371 -2.30616
thorax -7.96244 -4.34204 -8.02319
lowerneck 4.30903 -8.73668 -1.56063
upperneck 6.93093 -12.1736 3.18994
head 1.76941 -6.08137 1.19327
rclavicle 6.36111e-015 -2.70347e-014
rhumerus 221.714 -157.332 -255.047
rradius 10.5508
rwrist 20.3949
rhand -32.6805 14.7994
rfingers 7.12502
rthumb -5.90576 -15.0983
lclavicle 6.36111e-015 -2.70347e-014
lhumerus -25.7146 -15.3243 92.6552
lradius 53.9062
lwrist 8.38766
lhand -11.4527 -8.67656
lfingers 7.12502
lthumb 14.5844 20.7907
rfemur -69.4559 -11.4622 9.01425
rtibia 102.763
rfoot -33.6743 -1.87742
rtoes -18.0959
lfemur -69.0719 -1.57945 -27.7006
ltibia 99.5101
lfoot -31.0186 -15.0274
ltoes -4.17095
131
root -0.101087 12.9395 1.56909 183.414 -9.56536 -188.29
lowerback 81.4926 -9.56939 20.0443
upperback 9.89116 -3.39043 -2.28729
thorax -7.91595 -4.36468 -8.01565
lowerneck 4.56352 -8.73532 -1.59719
upperneck 6.89074 -12.1795 3.22197
head 1.71852 -6.08945 1.22249
rclavicle -3.49861e-014 -3.29983e-014
rhumerus 222.318 -156.188 -256.316
rradius 10.229
rwrist 22.4065
rhand -33.4122 15.1485
rfingers 7.12502
rthumb -6.61216 -14.7282
lclavicle -3.49861e-014 -3.29983e-014
lhumerus -25.8026 -15.5558 92.7431
lradius 53.8921
lwrist 8.68932
lhand -11.2574 -8.57783
lfingers 7.12502
lthumb 14.7725 20.8757
rfemur -69.8408 -11.6734 9.01968
rtibia 103.569
rfoot -33.8424 -1.92371
rtoes -18.3234
lfemur -69.4345 -1.35827 -27.7823
ltibia 100.274
lfoot -31.1883 -15.255
ltoes -3.92947
132
root -0.107588 12.8703 1.55997 183.274 -9.60205 -188.303
lowerback 81.4001 -9.62739 20.1074
upperback 9.9251 -3.43726 -2.26583
thorax -7.88237 -4.38914 -7.99425
lowerneck 4.84916 -8.72227 -1.61223
upperneck 6.84046 -12.1678 3.22501
head 1.65521 -6.08972 1.24139
rclavicle -2.54444e-014 -6.55989e-015
rhumerus 222.46 -156.294 -256.405
rradius 9.85612
rwrist 22.8404
rhand -34.4293 15.346
rfingers 7.12502
rthumb -7.59397 -14.4977
lclavicle -2.54444e-014 -6.55989e-015
lhumerus -25.8928 -15.7403 92.8382
lradius 53.8658
lwrist 8.99742
lhand -11.0314 -8.41345
lfingers 7.12502
lthumb 14.9902 21.024
rfemur -70.2159 -11.8599 9.00767
rtibia 104.346
rfoot -33.9947 -1.98302
rtoes -18.6698
lfemur -69.7747 -1.13134 -27.8768
ltibia 101.009
lfoot -31.3859 -15.4778
ltoes -3.85736
133
root -0.113301 12.803 1.55053 183.148 -9.64609 -188.303
lowerback 81.3192 -9.67916 20.1678
upperback 9.93486 -3.46258 -2.23026
thorax -7.87211 -4.40704 -7.96161
lowerneck 5.05591 -8.71884 -1.67565
upperneck 6.86361 -12.1771 3.22451
head 1.63253 -6.10042 1.26083
rclavicle -3.18055e-014 -9.22361e-014
rhumerus 222.511 -156.356 -256.412
rradius 9.57795
rwrist 23.2213
rhand -35.3496 15.6468
rfingers 7.12502
rthumb -8.48217 -14.1629
lclavicle -3.18055e-014 -9.22361e-014
lhumerus -25.9907 -15.941 92.9507
lradius 53.841
lwrist 9.30443
lhand -10.8708 -8.36381
lfingers 7.12502
lthumb 15.145 21.062
rfemur -70.5771 -12.0356 9.00493
rtibia 105.086
rfoot -34.1245 -2.02681
rtoes -18.8676
lfemur -70.1122 -0.905045 -27.9539
ltibia 101.713
lfoot -31.5688 -15.7115
ltoes -3.69793
134
root -0.11939 12.7375 1.54164 183.022 -9.68088 -188.282
lowerback 81.2403 -9.74211 20.243
upperback 9.94742 -3.49074 -2.21981
thorax -7.85889 -4.42184 -7.96384
lowerneck 5.26893 -8.70868 -1.64325
upperneck 6.86722 -12.1688 3.19126
head 1.59332 -6.10047 1.25605
rclavicle -1.27222e-014 -3.29983e-014
rhumerus 222.601 -156.409 -256.464
rradius 9.23987
rwrist 23.6359
rhand -36.2796 15.957
rfingers 7.12502
rthumb -9.3796 -13.8143
lclavicle -1.27222e-014 -3.29983e-014
lhumerus -26.0847 -16.1497 93.0367
lradius 53.8342
lwrist 9.60725
lhand -10.7589 -8.26492
lfingers 7.12502
lthumb 15.2527 21.1528
rfemur -70.9406 -12.2005 9.03797
rtibia 105.812
rfoot -34.2474 -2.08778
rtoes -19.1021
lfemur -70.4486 -0.664166 -28.008
ltibia 102.398
lfoot -31.722 -15.95
ltoes -3.53513
135
root -0.125463 12.6739 1.53192 182.878 -9.72434 -188.262
lowerback 81.1973 -9.80946 20.3017
upperback 9.94556 -3.52857 -2.1914
thorax -7.85916 -4.44669 -7.93141
lowerneck 5.46035 -8.69265 -1.71889
upperneck 6.87691 -12.1611 3.22146
head 1.57148 -6.10225 1.28664
rclavicle 1.27222e-014 -1.33186e-014
rhumerus 222.62 -156.477 -256.464
rradius 9.00388
rwrist 23.974
rhand -37.111 16.2704
rfingers 7.12502
rthumb -10.1817 -13.4632
lclavicle 1.27222e-014 -1.33186e-014
lhumerus -26.1548 -16.2699 93.1295
lradius 53.7831
lwrist 9.84373
lhand -10.6931 -8.29103
lfingers 7.12502
lthumb 15.3161 21.1218
rfemur -71.2432 -12.3551 9.05134
rtibia 106.501
rfoot -34.3717 -2.1505
rtoes -19.3261
lfemur -70.7467 -0.430922 -28.0622
ltibia 103.057
lfoot -31.8524 -16.1826
ltoes -3.29713
136
root -0.132124 12.6151 1.52197 182.756 -9.7496 -188.26
lowerback 81.176 -9.8677 20.3416
upperback 9.91782 -3.55408 -2.17415
thorax -7.88983 -4.46522 -7.90904
lowerneck 5.64069 -8.68302 -1.75643
upperneck 6.92291 -12.162 3.20128
head 1.55732 -6.10826 1.29413
rclavicle 6.04305e-014 6.95746e-015
rhumerus 222.589 -156.524 -256.446
rradius 8.81908
rwrist 24.3376
rhand -37.9599 16.619
rfingers 7.12502
rthumb -11.0006 -13.0728
lclavicle 6.04305e-014 6.95746e-015
lhumerus -26.2311 -16.3629 93.2276
lradius 53.724
lwrist 9.99342
lhand -10.6003 -8.39936
lfingers 7.12502
lthumb 15.4055 21.0066
rfemur -71.5541 -12.5088 9.03615
rtibia 107.155
rfoot -34.4738 -2.16867
rtoes -19.5382
lfemur -71.0148 -0.208174 -28.1345
ltibia 103.671
lfoot -32.0244 -16.3923
ltoes -3.21877
